<svg xmlns="http://www.w3.org/2000/svg" width="512" height="512" fill="none" viewBox="0 0 512 512"><path fill="url(#a)" d="M0 256C0 114.615 114.615 0 256 0s256 114.615 256 256-114.615 256-256 256S0 397.385 0 256Z"/><path fill="#242923" fill-rule="evenodd" d="M32 256c0 123.712 100.288 224 224 224s224-100.288 224-224S379.712 32 256 32 32 132.288 32 256ZM256 0C114.615 0 0 114.615 0 256s114.615 256 256 256 256-114.615 256-256S397.385 0 256 0Z" clip-rule="evenodd"/><rect width="256" height="256" x="128" y="128" fill="url(#b)" rx="128"/><path fill="#F58E7D" d="M176.001 355.927a128.7478 128.7478 0 0 1-16-15.26v-20.081c-8.316-57.097 8.073-117.159 51.884-143.446 18.896-11.337 36.532-12.923 52.709-14.377 2.56-.23 5.083-.457 7.569-.719 15.246-1.605 30.65-4.454 48.535-16.513 4.923 2.89 9.636 6.099 14.11 9.599-22.916 17.084-42.69 20.902-60.97 22.826-2.8.295-5.521.547-8.179.794-16.14 1.495-29.99 2.779-45.542 12.11-36.039 21.623-52.254 73.817-44.203 127.964l.087.585v36.518Z"/><path fill="#F58E7D" d="M224.001 379.968a126.9418 126.9418 0 0 1-16-5.272v-6.11c-8.316-57.097 8.073-117.159 51.884-143.446 18.896-11.337 36.532-12.923 52.709-14.377 2.56-.23 5.083-.457 7.569-.719 15.049-1.584 30.252-4.38 47.843-16.05a127.307 127.307 0 0 1 6.921 14.583c-19.62 12.5-36.938 15.679-53.089 17.379-2.8.295-5.52.547-8.178.793-16.14 1.496-29.991 2.78-45.543 12.111-36.039 21.623-52.254 73.817-44.203 127.964l.087.585v12.559Z"/><path fill="#F58E7D" d="M269.947 383.249c-4.581.497-9.234.751-13.947.751-.683 0-1.365-.005-2.045-.016.944-46.091 18.44-89.55 53.93-110.844 18.896-11.337 36.532-12.923 52.709-14.377 2.56-.23 5.083-.457 7.569-.719 5.229-.55 10.477-1.247 15.836-2.411.001.122.001.245.001.367 0 5.467-.343 10.853-1.008 16.139-4.481.808-8.859 1.365-13.154 1.817-2.799.295-5.517.547-8.174.793-16.141 1.496-29.995 2.78-45.547 12.111-28.934 17.361-45.091 54.427-46.17 96.389Z"/><defs><linearGradient id="a" x1="0" x2="512" y1="0" y2="512" gradientUnits="userSpaceOnUse"><stop stop-color="#FBFBFB"/><stop offset="1" stop-color="#E9E5E0"/></linearGradient><linearGradient id="b" x1="128" x2="384" y1="128" y2="384" gradientUnits="userSpaceOnUse"><stop stop-color="#FF7F6A"/><stop offset="1" stop-color="#BF5948"/></linearGradient></defs></svg>